<?xml version="1.0" standalone="no"?><!DOCTYPE svg PUBLIC "-//W3C//DTD SVG 1.1//EN" "http://www.w3.org/Graphics/SVG/1.1/DTD/svg11.dtd"><svg t="1777209096115" class="icon" viewBox="0 0 1048 1024" version="1.1" xmlns="http://www.w3.org/2000/svg" p-id="22545" xmlns:xlink="http://www.w3.org/1999/xlink" width="204.6875" height="200"><path d="M869.317221 785.78852m-129.933535 0a129.933535 129.933535 0 1 0 259.867069 0 129.933535 129.933535 0 1 0-259.867069 0Z" fill="#4C91FF" p-id="22546"></path><path d="M847.661631 847.661631c-111.371601 0-201.087613-89.716012-201.087613-201.087613s89.716012-201.087613 201.087613-201.087613 201.087613 89.716012 201.087614 201.087613-89.716012 201.087613-201.087614 201.087613z m0-340.302114c-77.34139 0-139.214502 61.873112-139.214501 139.214501s61.873112 139.214502 139.214501 139.214502 139.214502-61.873112 139.214502-139.214502-61.873112-139.214502-139.214502-139.214501zM538.296073 402.175227c-111.371601 0-201.087613-89.716012-201.087614-201.087614S426.924471 0 538.296073 0s201.087613 89.716012 201.087613 201.087613S649.667674 402.175227 538.296073 402.175227z m0-340.302115c-77.34139 0-139.214502 61.873112-139.214502 139.214501s61.873112 139.214502 139.214502 139.214502 139.214502-61.873112 139.214501-139.214502-61.873112-139.214502-139.214501-139.214501z" fill="#231815" p-id="22547"></path><path d="M702.259819 702.259819l-358.864049-3.093656L454.767372 340.302115l58.779456 18.561933-86.622357 278.429003 275.335348 3.093656z" fill="#231815" p-id="22548"></path><path d="M430.018127 699.166163H0c0-34.030211 27.8429-61.873112 61.873112-61.873112h368.145015v61.873112z" fill="#231815" p-id="22549"></path><path d="M371.238671 609.450151L247.492447 1020.906344c34.030211 9.280967 68.060423-9.280967 77.34139-40.217522l105.18429-352.676737-58.779456-18.561934z" fill="#231815" p-id="22550"></path></svg>