<?xml version="1.0" standalone="no"?><!DOCTYPE svg PUBLIC "-//W3C//DTD SVG 1.1//EN" "http://www.w3.org/Graphics/SVG/1.1/DTD/svg11.dtd"><svg t="1777211538404" class="icon" viewBox="0 0 1024 1024" version="1.1" xmlns="http://www.w3.org/2000/svg" p-id="44449" xmlns:xlink="http://www.w3.org/1999/xlink" width="200" height="200"><path d="M200.66783 246.983879h475.357224V722.341103H200.66783z" fill="#FFD800" p-id="44450"></path><path d="M322.319745 801.514735a33.541021 33.541021 0 0 1-24.288325-10.514427c-26.706643-26.706643 2.313174-62.560838 30.596981-90.844645A607.208132 607.208132 0 0 1 416.318719 630.865592a8.726974 8.726974 0 1 1 9.147551 14.825341 597.009139 597.009139 0 0 0-84.115413 66.240888c-48.366362 48.471506-35.854194 60.983674-30.491837 66.240887a16.402505 16.402505 0 0 0 18.610535 4.521203c11.881302-3.574905 27.86323-15.351063 47.630353-35.01304a603.002362 603.002362 0 0 0 66.240887-84.115413 8.726974 8.726974 0 1 1 14.825341 9.147552 605.630968 605.630968 0 0 1-68.764349 87.690317c-22.080296 22.080296-40.059965 35.01304-54.990451 39.429099a42.057706 42.057706 0 0 1-12.091591 1.682309z" fill="" p-id="44451"></path><path d="M450.385461 676.708492a8.62183 8.62183 0 0 1-6.203512-2.523463l-29.440394-29.440394a8.726974 8.726974 0 0 1 0-12.301879 8.62183 8.62183 0 0 1 12.301879 0l29.440394 29.440394a8.726974 8.726974 0 0 1 0 12.301879 8.62183 8.62183 0 0 1-6.098367 2.523463z" fill="" p-id="44452"></path><path d="M444.602526 671.451278a8.62183 8.62183 0 0 1-6.098367-2.523462l-18.295103-18.295102a8.726974 8.726974 0 0 1 0-12.301879l25.12948-25.12948a8.726974 8.726974 0 0 1 12.301879 0L476.145806 631.496458a8.726974 8.726974 0 0 1 2.523462 6.098367 9.147551 9.147551 0 0 1-2.523462 6.203512l-25.12948 25.129479a8.62183 8.62183 0 0 1-6.4138 2.523462z m-5.888079-26.916932l5.888079 5.888079 12.8276-12.8276-5.888079-5.888079z" fill="" p-id="44453"></path><path d="M455.116952 681.860561a8.832118 8.832118 0 0 1-6.203511-2.523463l-39.744532-39.744532a8.726974 8.726974 0 0 1 12.301879-12.301879l39.744532 39.744532a8.726974 8.726974 0 0 1-6.098368 14.825342z" fill="" p-id="44454"></path><path d="M606.524695 697.211623a214.914878 214.914878 0 1 1 151.933463-63.086559 213.337714 213.337714 0 0 1-151.933463 63.086559z m0-412.375808a197.566075 197.566075 0 1 0 139.631584 57.93449 196.094055 196.094055 0 0 0-139.631584-57.93449z" fill="" p-id="44455"></path><path d="M606.524695 649.370983a167.074238 167.074238 0 1 1 118.077009-48.997228 166.022795 166.022795 0 0 1-118.077009 48.997228z m0-316.589383a149.515145 149.515145 0 1 0 105.77513 43.845158 148.568847 148.568847 0 0 0-105.77513-43.845158z" fill="" p-id="44456"></path><path d="M636.280522 596.06284a8.726974 8.726974 0 0 1-2.418318-17.033371 100.728206 100.728206 0 0 0 73.600985-96.62758 8.726974 8.726974 0 0 1 17.453948 0 117.341 117.341 0 0 1-34.487319 83.274258 119.128453 119.128453 0 0 1-51.205257 30.07126 9.568128 9.568128 0 0 1-2.944039 0.315433zM326.840949 515.2069h-4.310915a8.726974 8.726974 0 1 1 0-17.348804h4.310915a8.726974 8.726974 0 1 1 0 17.348804zM265.857275 515.2069h-4.310915a8.726974 8.726974 0 1 1 0-17.348804H265.857275A8.726974 8.726974 0 1 1 265.857275 515.2069zM793.576343 745.577985h-78.332478a8.726974 8.726974 0 1 1 0-17.348803h78.332478a8.726974 8.726974 0 1 1 0 17.348803zM326.840949 585.232981h-4.310915a8.726974 8.726974 0 0 1 0-17.453948h4.310915a8.726974 8.726974 0 0 1 0 17.453948z m-60.983674 0h-4.310915a8.726974 8.726974 0 0 1 0-17.453948H265.857275a8.726974 8.726974 0 0 1 0 17.453948zM689.904097 818.65325h-4.310915a8.726974 8.726974 0 1 1 0-17.453948h4.310915a8.726974 8.726974 0 1 1 0 17.453948z m-60.983674 0h-4.310915a8.726974 8.726974 0 1 1 0-17.453948h4.310915a8.726974 8.726974 0 0 1 0 17.453948z" fill="" p-id="44457"></path><path d="M798.9387 818.65325H689.904097a8.726974 8.726974 0 1 1 0-17.453948H798.9387a8.726974 8.726974 0 0 1 0 17.453948z" fill="" p-id="44458"></path></svg>