<?xml version="1.0" standalone="no"?><!DOCTYPE svg PUBLIC "-//W3C//DTD SVG 1.1//EN" "http://www.w3.org/Graphics/SVG/1.1/DTD/svg11.dtd"><svg t="1777209063669" class="icon" viewBox="0 0 1024 1024" version="1.1" xmlns="http://www.w3.org/2000/svg" p-id="19806" xmlns:xlink="http://www.w3.org/1999/xlink" width="200" height="200"><path d="M192 0h485.504a64 64 0 0 1 45.226667 18.773333l218.538666 218.453334a64 64 0 0 1 18.730667 45.269333V960A64 64 0 0 1 896 1024H192A64 64 0 0 1 128 960v-896A64 64 0 0 1 192 0z" fill="#DCDFE6" p-id="19807"></path><path d="M192 32h482.773333c8.448 0 16.64 3.413333 22.613334 9.386667l221.226666 221.226666c5.973333 5.973333 9.386667 14.165333 9.386667 22.613334V960a32 32 0 0 1-32 32H192a32 32 0 0 1-32-32v-896A32 32 0 0 1 192 32z" fill="#FFFFFF" p-id="19808"></path><path d="M224 832h640v48h-640V832z m0-128h448v48H224V704z" fill="#DCDFE6" p-id="19809"></path><path d="M64 160H384c42.666667 0 64 21.333333 64 64v320c0 42.666667-21.333333 64-64 64H64c-42.666667 0-64-21.333333-64-64v-320c0-42.666667 21.333333-64 64-64z" fill="#F5A623" p-id="19810"></path><path d="M656 0v240a64 64 0 0 0 64 64H960L656 0z" fill="#DCDFE6" p-id="19811"></path><path d="M688 32v208c0 17.664 14.336 32 32 32h208L688 32zM311.168 347.050667c13.525333 7.850667 21.290667 19.456 21.290667 31.829333s-7.765333 23.936-21.290667 31.744l-118.570667 68.394667c-6.784 4.181333-14.506667 6.485333-22.485333 6.656-16.213333 0-32.512-11.861333-32.512-38.4V310.442667c0-26.581333 16.298667-38.442667 32.512-38.442667 7.936 0.213333 15.701333 2.474667 22.485333 6.656l118.570667 68.394667z m-20.608 40.32c5.12-2.986667 8.234667-6.613333 8.234667-9.728 0-3.2-3.072-6.826667-8.192-9.813334L187.733333 308.48a18.816 18.816 0 0 0-9.301333-3.029333c-6.698667 0-7.68 7.978667-7.68 12.8v118.741333c0 4.778667 1.024 12.8 7.68 12.8a18.816 18.816 0 0 0 9.216-3.029333L290.56 387.370667zM41.6 217.6h46.506667v46.506667H41.6V217.6z m0 94.72h46.506667v46.506667H41.6V312.32z m0 94.72h46.506667v46.506667H41.6V407.04z m0 94.72h46.506667v46.506667H41.6v-46.506667z m320-284.16h46.506667v46.506667h-46.506667V217.6z m0 94.72h46.506667v46.506667h-46.506667V312.32z m0 94.72h46.506667v46.506667h-46.506667V407.04z m0 94.72h46.506667v46.506667h-46.506667v-46.506667z" fill="#FFFFFF" p-id="19812"></path></svg>