<?xml version="1.0" standalone="no"?><!DOCTYPE svg PUBLIC "-//W3C//DTD SVG 1.1//EN" "http://www.w3.org/Graphics/SVG/1.1/DTD/svg11.dtd"><svg t="1777208942483" class="icon" viewBox="0 0 1024 1024" version="1.1" xmlns="http://www.w3.org/2000/svg" p-id="7890" xmlns:xlink="http://www.w3.org/1999/xlink" width="200" height="200"><path d="M613.888 715.264h-41.984C448.512 715.264 348.16 614.912 348.16 491.52s99.84-223.232 223.232-223.232h41.984c123.392 0 223.232 99.84 223.232 223.232 0.512 123.392-99.328 223.744-222.72 223.744z" fill="#CAD3FF" opacity=".2" p-id="7891"></path><path d="M513.536 914.432c-105.472 0-205.312-39.936-281.088-113.152-77.824-74.752-121.344-175.104-122.88-282.624-3.584-221.696 175.104-404.992 398.336-408.576 223.232-3.072 407.552 174.08 411.136 395.776 1.536 94.72-22.528 171.008-75.264 240.128a25.3952 25.3952 0 0 1-35.84 4.608 25.3952 25.3952 0 0 1-4.608-35.84c45.568-59.392 66.048-125.44 64.512-207.872-3.072-193.536-164.352-348.672-358.912-345.6-195.584 2.56-351.232 162.816-348.16 356.352 1.536 93.696 39.424 181.248 107.52 246.784 67.584 65.536 157.184 100.352 251.392 98.816 17.92-0.512 35.328-2.048 52.736-4.608 13.824-2.048 27.136 7.168 29.184 20.992s-7.168 27.136-20.992 29.184c-19.968 3.072-39.936 5.12-60.416 5.632h-6.656z" fill="#4E63DD" p-id="7892"></path><path d="M640 894.976c-9.728 0-19.456-5.632-23.552-15.36-5.632-12.8 0.512-28.16 13.312-33.792 0.512 0 40.448-17.408 67.584-33.792 12.288-7.168 27.648-3.072 34.816 9.216 7.168 12.288 3.072 27.648-9.216 34.816-30.208 17.92-71.68 35.84-73.216 36.352-3.072 2.048-6.144 2.56-9.728 2.56zM764.416 822.272c-6.656 0-13.312-2.56-18.432-7.68-9.728-10.24-9.728-26.624 0.512-36.352l16.896-16.384c10.24-9.728 26.624-9.728 36.352 0.512 9.728 10.24 9.728 26.624-0.512 36.352l-16.896 16.384c-5.12 4.608-11.264 7.168-17.92 7.168z" fill="#4E63DD" p-id="7893"></path><path d="M594.432 707.584v15.872H444.928v-15.872l33.792-3.072c0.512-30.208 1.024-74.24 1.024-102.912v-40.96c0-32.768-0.512-51.712-1.536-77.824l-38.4-4.096V465.92l117.248-30.72 7.168 5.12-2.048 81.92v78.848c0 28.672 0.512 73.216 1.024 102.912l31.232 3.584zM475.136 342.528c0-24.576 19.968-41.984 44.032-41.984 24.576 0 44.544 17.408 44.544 41.984 0 24.064-19.968 41.472-44.544 41.472-24.064 0-44.032-17.408-44.032-41.472z" fill="#4E63DD" opacity=".5" p-id="7894"></path></svg>